<svg width="46" height="46" viewBox="0 0 46 46" fill="none" xmlns="http://www.w3.org/2000/svg">
<path d="M31.3475 26.7663C31.1683 26.9455 30.9232 27.0586 30.6404 27.0586C30.0935 27.0586 29.641 26.6061 29.641 26.0592L29.641 15.6129L19.1947 15.6129C18.6478 15.6129 18.1953 15.1604 18.1953 14.6135C18.1953 14.0667 18.6478 13.6142 19.1947 13.6142L30.6404 13.6142C31.1872 13.6142 31.6397 14.0667 31.6397 14.6135L31.6397 26.0592C31.6397 26.3421 31.5266 26.5872 31.3475 26.7663Z" fill="#E6E6E6"/>
<path d="M31.188 15.4809L15.3205 31.3484C14.934 31.735 14.2929 31.735 13.9063 31.3484C13.5198 30.9619 13.5198 30.3207 13.9063 29.9342L29.7738 14.0667C30.1604 13.6802 30.8015 13.6802 31.188 14.0667C31.5746 14.4533 31.5746 15.0944 31.188 15.4809Z" fill="#E6E6E6"/>
</svg>
