<svg width="32" height="32" viewBox="0 0 32 32" fill="none" xmlns="http://www.w3.org/2000/svg">
<path d="M25.0935 12.76C25.0935 13.0133 25.0002 13.2667 24.8002 13.4667C24.4135 13.8533 23.7735 13.8533 23.3868 13.4667L16.0002 6.07998L8.61349 13.4667C8.22682 13.8533 7.58682 13.8533 7.20016 13.4667C6.81349 13.08 6.81349 12.44 7.20016 12.0533L15.2935 3.95998C15.6802 3.57332 16.3202 3.57332 16.7068 3.95998L24.8002 12.0533C25.0002 12.2533 25.0935 12.5067 25.0935 12.76Z" fill="#E6E6E6"/>
<path d="M17 4.89334L17 27.3333C17 27.88 16.5467 28.3333 16 28.3333C15.4533 28.3333 15 27.88 15 27.3333L15 4.89334C15 4.34668 15.4533 3.89334 16 3.89334C16.5467 3.89334 17 4.34668 17 4.89334Z" fill="#E6E6E6"/>
</svg>
