<svg width="32" height="32" viewBox="0 0 32 32" fill="none" xmlns="http://www.w3.org/2000/svg">
<g clip-path="url(#clip0_117_579)">
<path d="M24.3475 19.7663C24.1683 19.9455 23.9232 20.0586 23.6404 20.0586C23.0935 20.0586 22.641 19.6061 22.641 19.0592L22.641 8.6129L12.1947 8.6129C11.6478 8.6129 11.1953 8.16035 11.1953 7.61353C11.1953 7.0667 11.6478 6.61415 12.1947 6.61415L23.6404 6.61414C24.1872 6.61414 24.6397 7.06669 24.6397 7.61352L24.6397 19.0592C24.6397 19.3421 24.5266 19.5872 24.3475 19.7663Z" fill="#E6E6E6"/>
<path d="M24.188 8.48092L8.32054 24.3484C7.93399 24.735 7.29288 24.735 6.90633 24.3484C6.51977 23.9619 6.51977 23.3207 6.90633 22.9342L22.7738 7.06671C23.1604 6.68016 23.8015 6.68016 24.188 7.06671C24.5746 7.45326 24.5746 8.09437 24.188 8.48092Z" fill="#E6E6E6"/>
</g>
<defs>
<clipPath id="clip0_117_579">
<rect width="32" height="32" fill="white"/>
</clipPath>
</defs>
</svg>
