<svg width="9" height="12" viewBox="0 0 9 12" fill="none" xmlns="http://www.w3.org/2000/svg">
<g clip-path="url(#clip0_98_754)">
<path d="M1.5 0C0.672656 0 0 0.672656 0 1.5V10.5C0 11.3273 0.672656 12 1.5 12H7.5C8.32734 12 9 11.3273 9 10.5V3.75H6C5.58516 3.75 5.25 3.41484 5.25 3V0H1.5ZM6 0V3H9L6 0ZM5.0625 5.4375V7.83047L5.78906 7.10391C6.00937 6.88359 6.36562 6.88359 6.58359 7.10391C6.80156 7.32422 6.80391 7.68047 6.58359 7.89844L4.89609 9.58594C4.67578 9.80625 4.31953 9.80625 4.10156 9.58594L2.41406 7.89844C2.19375 7.67813 2.19375 7.32188 2.41406 7.10391C2.63437 6.88594 2.99062 6.88359 3.20859 7.10391L3.93516 7.83047L3.9375 5.4375C3.9375 5.12578 4.18828 4.875 4.5 4.875C4.81172 4.875 5.0625 5.12578 5.0625 5.4375Z" fill="#E6E6E6"/>
</g>
<defs>
<clipPath id="clip0_98_754">
<rect width="9" height="12" fill="white"/>
</clipPath>
</defs>
</svg>
